<?xml version="1.0" standalone="no"?>
<!DOCTYPE svg PUBLIC "-//W3C//DTD SVG 20010904//EN"
 "http://www.w3.org/TR/2001/REC-SVG-20010904/DTD/svg10.dtd">
<svg version="1.0" xmlns="http://www.w3.org/2000/svg"
 width="560.000000pt" height="551.000000pt" viewBox="0 0 560.000000 551.000000"
 preserveAspectRatio="xMidYMid meet">

<g transform="translate(0.000000,551.000000) scale(0.100000,-0.100000)"
fill="#000000" stroke="none">
<path d="M0 2755 l0 -2755 2800 0 2800 0 0 2755 0 2755 -2800 0 -2800 0 0
-2755z m2603 1709 c14 -14 29 -40 32 -57 6 -27 77 -285 118 -426 11 -39 10
-54 -6 -115 -193 -752 -239 -944 -234 -984 5 -48 45 -99 84 -108 27 -7 31 -24
6 -24 -9 0 -53 -11 -97 -25 -391 -119 -517 -155 -548 -155 -52 0 -77 50 -129
260 -25 100 -24 105 16 136 26 20 57 30 118 39 100 16 145 34 198 82 68 62 98
149 69 203 -8 14 -5 28 11 54 12 20 25 33 30 30 12 -7 11 -68 -2 -123 -5 -24
-8 -45 -7 -46 2 -1 38 9 80 22 l78 24 -25 25 c-30 30 -75 99 -75 114 0 6 13 4
32 -6 93 -48 202 44 178 151 -16 71 -52 108 -175 181 -44 26 -103 65 -131 85
-51 38 -64 40 -64 11 0 -9 -33 -81 -72 -161 -67 -133 -73 -150 -73 -206 0 -38
5 -68 14 -79 8 -9 11 -20 7 -24 -4 -4 -60 -9 -124 -12 -96 -4 -125 -9 -161
-28 -24 -13 -45 -21 -47 -19 -3 2 -38 127 -79 278 -41 151 -91 332 -111 403
-42 148 -44 168 -17 204 17 23 50 36 204 81 101 29 326 95 499 147 173 51 329
93 346 93 21 1 40 -8 57 -25z m693 -65 c617 -156 751 -191 777 -201 15 -6 35
-24 43 -39 14 -27 11 -43 -41 -242 -108 -415 -155 -601 -155 -613 0 -24 -19
-24 -66 1 -32 17 -63 25 -97 25 -42 0 -48 2 -43 17 15 37 158 624 154 628 -2
2 -92 27 -199 54 -106 27 -265 68 -352 90 -87 23 -162 41 -167 41 -5 0 -13
-15 -19 -32 -10 -31 -201 -785 -275 -1084 l-32 -131 80 -20 c45 -11 208 -53
364 -93 156 -40 284 -71 286 -69 2 2 19 65 38 139 l34 135 49 -3 c50 -4 110
-37 122 -68 3 -8 -12 -85 -33 -170 -41 -166 -62 -204 -111 -204 -22 0 -112 22
-483 120 -80 21 -219 57 -310 80 -276 70 -268 67 -286 102 -9 17 -14 40 -11
52 2 11 34 136 70 276 36 140 104 408 152 595 48 187 104 407 125 490 42 163
56 185 115 185 18 0 140 -27 271 -61z m-416 -16 c0 -5 -3 -18 -6 -30 -6 -21
-12 -23 -85 -23 -44 0 -79 3 -79 8 0 4 -3 17 -6 30 -6 22 -5 22 85 22 50 0 91
-3 91 -7z m486 -322 c9 -20 18 -51 21 -68 6 -33 9 -35 66 -36 15 0 27 -4 27
-8 0 -4 15 -5 33 -2 18 2 55 -4 82 -14 50 -19 71 -42 38 -44 -17 -1 -17 -2 0
-6 9 -2 15 -9 12 -13 -3 -6 -16 -5 -30 0 -21 8 -24 6 -30 -21 -4 -17 -4 -33
-1 -36 3 -4 6 1 6 9 0 9 11 18 24 20 24 5 24 5 10 -36 -19 -53 -51 -86 -84
-86 -35 0 -95 61 -87 89 3 12 1 19 -4 15 -5 -3 -9 1 -10 8 0 10 -2 10 -6 -1
-5 -11 -7 -11 -15 0 -8 11 -9 11 -5 -1 2 -8 10 -14 16 -12 12 2 15 -11 4 -22
-4 -4 -17 10 -30 31 l-22 37 2 -29 c1 -18 9 -33 20 -37 10 -4 15 -13 12 -18
-5 -8 -11 -7 -21 1 -12 10 -13 9 -7 -7 4 -10 -10 -1 -30 20 -20 21 -37 40 -37
42 0 9 26 -2 36 -15 9 -11 12 -12 19 -1 5 9 4 11 -3 6 -15 -9 -15 -5 -2 29 7
17 7 24 0 20 -6 -3 -10 0 -11 7 0 10 -2 10 -6 1 -2 -7 -17 -14 -31 -14 -24 -2
-24 -2 -4 -6 12 -2 22 -9 22 -14 0 -6 -4 -8 -9 -4 -5 3 -13 0 -16 -6 -4 -6
-17 -14 -29 -19 l-21 -9 23 0 c14 -1 22 -7 22 -18 0 -39 -35 -173 -45 -170
-12 4 -14 28 -3 43 5 7 1 17 -9 25 -15 12 -16 12 -10 -4 4 -11 3 -16 -3 -12
-6 3 -10 -1 -10 -9 0 -9 6 -16 13 -17 9 0 9 -2 -1 -6 -8 -3 2 -15 25 -32 48
-36 68 -58 94 -107 11 -21 18 -31 14 -20 -3 10 -1 24 5 31 7 8 7 21 1 36 -10
24 -10 23 -10 -5 -1 -16 -4 -27 -7 -24 -8 9 7 118 16 118 4 0 8 -12 8 -27 2
-52 5 -68 19 -81 7 -7 13 -10 13 -5 0 5 -5 14 -12 21 -9 9 -8 12 4 12 9 0 19
8 21 18 12 46 5 -28 -7 -83 -8 -33 -13 -62 -10 -64 2 -3 20 3 39 12 44 21 51
21 35 2 -7 -8 -30 -20 -51 -27 -44 -13 -47 -18 -20 -42 18 -16 22 -16 50 -2
34 18 41 19 41 8 0 -5 -18 -14 -41 -21 -53 -16 -69 -2 -104 88 -33 88 -50 111
-75 104 -12 -3 -22 1 -26 11 -3 9 -12 16 -20 16 -8 0 -14 4 -14 10 0 5 -8 7
-17 3 -15 -5 -16 -3 -6 7 11 12 18 10 40 -6 39 -28 53 -36 53 -30 0 10 -83 66
-97 66 -8 0 -12 -4 -8 -9 3 -5 0 -13 -6 -17 -8 -5 -10 -1 -7 14 3 11 1 23 -6
25 -6 3 1 3 15 1 25 -3 27 0 34 44 4 26 13 64 20 85 l13 38 -31 -7 c-18 -3
-49 -12 -69 -19 -34 -11 -38 -11 -39 4 0 9 -5 1 -10 -16 -7 -25 -6 -39 6 -56
27 -41 66 -167 72 -233 7 -71 -7 -159 -39 -249 -25 -72 -34 -83 -50 -67 -9 9
-9 12 1 12 7 0 10 4 6 10 -3 5 -13 6 -21 3 -13 -5 -15 -1 -9 18 4 17 3 20 -3
10 -6 -9 -17 -11 -28 -7 -17 7 -17 9 6 26 14 11 19 20 13 20 -7 0 -13 4 -13 9
0 17 32 42 46 37 31 -12 39 180 10 277 -11 36 -15 76 -12 105 3 26 3 38 0 27
-14 -54 -94 -376 -94 -379 0 -2 9 -6 20 -9 25 -6 25 -33 2 -72 l-18 -29 48
-39 c27 -21 46 -43 42 -48 -3 -6 -12 -8 -19 -5 -9 3 -11 -2 -7 -16 3 -15 1
-19 -7 -14 -7 5 -10 2 -9 -6 2 -7 -1 -12 -7 -11 -6 1 -9 -18 -7 -45 4 -68 -10
-83 -41 -46 -27 31 -49 26 -29 -6 7 -11 12 -30 12 -42 0 -19 -2 -20 -11 -8 -9
12 -10 11 -6 -7 7 -32 -5 -36 -69 -23 -50 10 -54 14 -48 33 3 12 13 28 23 35
9 7 25 20 36 28 17 13 15 13 -7 0 -38 -22 -49 -20 -14 3 16 11 35 17 41 14 21
-8 27 15 7 26 -19 10 -19 12 -2 73 34 124 33 120 9 113 -17 -6 -20 -4 -13 6 5
8 9 20 9 28 0 11 23 30 42 37 2 0 7 21 12 47 8 43 7 46 -10 36 -13 -6 -19 -6
-19 0 0 6 9 15 20 21 21 11 31 31 44 85 l7 29 -22 -19 c-16 -14 -21 -16 -17
-5 2 8 14 19 25 24 12 6 23 23 26 40 3 17 9 39 13 50 6 16 5 17 -14 7 -30 -16
-28 4 2 24 14 9 26 29 29 48 3 18 9 41 13 52 7 20 7 20 -14 1 -12 -11 -25 -17
-28 -13 -3 3 8 18 25 33 31 27 42 76 21 89 -6 3 -7 18 -4 33 7 33 42 174 55
223 l9 37 100 -26 c98 -24 101 -26 116 -61z m476 -92 c15 -8 16 -14 6 -34 -6
-14 -15 -25 -20 -25 -5 0 -7 -4 -4 -9 3 -5 -2 -15 -12 -22 -15 -13 -16 -12 -3
4 18 23 6 21 -33 -5 -30 -21 -31 -25 -19 -48 11 -21 13 -22 13 -6 0 11 3 17 6
13 3 -3 -4 -44 -15 -91 -25 -102 -26 -107 -4 -99 11 4 14 3 9 -5 -4 -7 -14
-12 -22 -12 -8 0 -14 -5 -14 -11 0 -6 7 -9 15 -5 8 3 15 1 15 -4 0 -9 -14 -14
-32 -11 -5 0 -8 -7 -8 -16 0 -13 3 -14 12 -5 18 18 33 15 18 -3 -7 -9 -18 -14
-25 -11 -7 2 -21 -38 -39 -115 -15 -65 -31 -119 -35 -119 -5 0 2 42 14 93 23
92 36 153 28 130 -7 -22 -22 -14 -29 14 -4 16 -2 36 7 52 17 30 39 39 39 15 0
-24 6 -15 14 21 4 17 3 25 -1 19 -24 -33 -84 -6 -69 31 3 9 -1 27 -10 41 -16
23 -15 24 6 24 17 0 21 4 15 18 -14 33 -17 58 -8 92 9 34 33 54 33 27 0 -7 9
-22 19 -31 19 -17 20 -17 27 18 3 21 4 40 0 43 -3 4 -6 -6 -6 -21 0 -18 -5
-26 -12 -24 -19 7 -22 40 -6 52 8 6 17 19 21 29 6 16 14 18 50 12 23 -4 50
-11 59 -16z m-752 -153 c0 -3 -4 -8 -10 -11 -5 -3 -10 -1 -10 4 0 6 5 11 10
11 6 0 10 -2 10 -4z m565 -34 c-8 -8 -25 10 -19 20 4 6 9 5 15 -3 4 -7 6 -15
4 -17z m-2190 -142 c-164 -248 -250 -517 -262 -817 -5 -141 -7 -154 -29 -174
l-22 -21 -8 59 c-10 80 11 316 40 443 44 194 126 384 238 549 28 42 58 84 67
95 15 17 16 17 24 -16 7 -30 2 -42 -48 -118z m2032 62 c-10 -13 -9 -14 11 -3
13 7 28 10 35 8 14 -4 -44 -37 -66 -37 -17 0 -49 34 -40 43 3 4 -2 16 -12 27
-15 16 -16 22 -5 35 12 14 18 12 51 -21 32 -31 36 -40 26 -52z m303 84 c0 -3
-4 -8 -10 -11 -5 -3 -10 -1 -10 4 0 6 5 11 10 11 6 0 10 -2 10 -4z m364 -81
c30 -42 80 -125 111 -185 122 -239 173 -440 181 -720 l5 -175 -29 31 c-28 30
-29 34 -31 140 -5 297 -100 600 -264 844 -31 45 -50 84 -49 98 2 23 9 42 17
42 2 0 28 -34 59 -75z m-734 12 c0 -6 -9 -2 -20 8 -11 10 -20 23 -20 28 0 6 9
2 20 -8 11 -10 20 -23 20 -28z m193 16 c-5 -12 -2 -15 10 -10 9 3 17 2 17 -3
0 -15 -38 -12 -43 3 -6 17 3 38 14 32 4 -3 5 -13 2 -22z m167 12 c-7 -9 -15
-13 -17 -11 -7 7 7 26 19 26 6 0 6 -6 -2 -15z m-425 -21 c9 -14 19 -23 22 -20
3 3 0 12 -7 21 -7 9 -10 18 -8 21 3 3 16 -9 28 -25 18 -27 19 -30 4 -24 -15 6
-14 2 5 -25 31 -44 51 -53 81 -36 14 7 33 13 42 14 10 0 19 11 23 30 4 16 11
33 17 36 13 9 49 -32 42 -49 -3 -8 1 -14 10 -14 8 0 12 6 8 15 -3 9 0 13 8 10
24 -8 22 -24 -7 -58 -24 -30 -25 -32 -5 -21 27 15 28 10 2 -14 -19 -17 -20
-17 -29 6 -7 21 -10 17 -21 -35 -12 -59 -10 -165 5 -198 4 -11 3 -18 -4 -18
-6 0 -11 8 -11 18 -1 16 -1 16 -14 0 -21 -28 -33 -21 -40 20 -12 73 -3 187 20
245 6 17 5 17 -35 1 l-42 -17 -46 44 c-52 51 -88 99 -75 99 5 0 17 -12 27 -26z
m406 -27 c-10 -9 -11 -8 -5 6 3 10 9 15 12 12 3 -3 0 -11 -7 -18z m-725 -25
c-18 -16 -18 -16 -6 6 6 13 14 21 18 18 3 -4 -2 -14 -12 -24z m414 -24 c0 -6
-7 -5 -15 2 -8 7 -15 17 -15 22 0 6 7 5 15 -2 8 -7 15 -17 15 -22z m60 17 c-7
-8 -18 -15 -24 -15 -6 0 -2 7 8 15 25 19 32 19 16 0z m-104 -66 c3 -6 1 -16
-6 -22 -10 -9 -11 -9 -5 2 4 8 2 17 -6 22 -9 6 -10 9 -2 9 6 0 15 -5 19 -11z
m-155 -57 c17 -15 29 -20 33 -13 9 14 26 14 26 1 0 -5 -7 -10 -15 -10 -9 0
-12 -6 -9 -15 5 -11 10 -13 19 -5 9 8 15 8 20 0 3 -5 -1 -13 -9 -16 -23 -9
-19 -26 4 -19 11 4 20 2 20 -4 0 -6 -6 -11 -14 -11 -11 0 -13 -7 -7 -28 13
-42 39 -90 53 -95 7 -2 9 -8 5 -13 -5 -5 -16 2 -26 15 l-18 23 -12 -62 c-12
-61 -13 -62 -32 -44 -19 17 -19 19 -3 31 10 7 12 13 6 13 -7 0 -12 5 -12 11 0
6 6 9 13 6 8 -3 14 4 15 18 1 18 -3 23 -23 21 -14 0 -25 -7 -25 -14 0 -7 5
-10 10 -7 6 3 10 1 10 -4 0 -6 -8 -11 -17 -11 -15 0 -16 -2 -3 -10 8 -5 11
-12 7 -16 -17 -17 -28 14 -19 52 6 22 13 51 16 67 4 15 11 27 16 27 5 0 4 -13
-2 -31 -14 -42 6 -65 22 -24 12 31 8 50 -26 116 -17 33 -33 50 -63 64 -23 10
-41 22 -41 26 0 13 52 -12 81 -39z m-231 28 c0 -5 -5 -10 -11 -10 -5 0 -7 5
-4 10 3 6 8 10 11 10 2 0 4 -4 4 -10z m224 -49 c3 -5 -9 -14 -27 -20 l-32 -11
24 20 c27 23 28 23 35 11z m480 -35 c-6 -16 -34 -30 -34 -18 0 5 5 13 12 20
16 16 29 15 22 -2z m-444 -26 c0 -9 -71 -33 -78 -26 -5 6 50 35 66 36 6 0 12
-4 12 -10z m-295 -19 c-3 -6 -11 -11 -17 -11 -6 0 -6 6 2 15 14 17 26 13 15
-4z m718 -6 c-3 -9 -8 -14 -10 -11 -3 3 -2 9 2 15 9 16 15 13 8 -4z m-317 -72
c15 -21 15 -23 0 -23 -9 0 -16 7 -16 15 0 8 -5 15 -11 15 -5 0 -7 5 -4 10 3 6
1 10 -5 10 -6 0 -9 4 -6 9 4 5 1 11 -6 13 -7 3 -8 10 -3 17 6 10 11 6 21 -15
7 -16 21 -39 30 -51z m299 -3 c-10 -11 -20 -18 -23 -15 -3 3 3 14 13 25 10 11
20 18 23 15 3 -3 -3 -14 -13 -25z m-715 -4 c0 -2 -7 -7 -16 -10 -8 -3 -12 -2
-9 4 6 10 25 14 25 6z m1099 -130 c23 -37 41 -69 39 -71 -2 -2 -36 16 -76 39
l-73 41 6 48 c9 77 14 83 40 45 12 -18 41 -64 64 -102z m-2440 64 c5 -24 9
-45 8 -46 -1 0 -37 -22 -79 -47 -43 -26 -78 -44 -78 -41 0 9 69 123 98 162 28
39 37 34 51 -28z m541 -25 c20 -97 -85 -191 -225 -202 -93 -7 -100 -9 -160
-65 l-57 -52 7 -86 c12 -148 -29 -257 -129 -346 -48 -43 -49 -46 -21 -39 71
16 178 126 192 198 7 35 16 26 32 -32 18 -62 38 -89 82 -112 52 -26 67 -25
225 21 76 21 139 38 141 36 2 -1 -54 -59 -125 -128 -141 -138 -228 -197 -338
-228 -78 -22 -149 -25 -224 -9 -28 6 -53 9 -55 7 -3 -2 15 -17 39 -32 l43 -27
-59 -61 c-60 -62 -71 -84 -40 -74 54 17 343 70 502 92 520 71 1043 72 1547 4
152 -20 444 -72 517 -91 21 -6 40 -8 43 -5 3 3 -22 34 -57 70 l-62 65 29 15
c16 8 36 22 44 32 13 16 11 16 -26 8 -22 -5 -80 -9 -130 -8 -108 1 -172 23
-275 92 -59 40 -286 250 -278 258 2 1 67 -14 145 -34 l142 -36 47 20 c57 23
80 52 96 122 7 28 15 52 18 52 3 0 13 -19 23 -43 23 -57 71 -114 126 -148 78
-50 85 -35 17 34 -89 89 -110 145 -111 300 l0 118 -40 41 c-48 49 -90 68 -149
68 -63 0 -152 36 -198 79 -29 27 -40 48 -47 83 -11 64 3 84 50 73 19 -4 99
-10 179 -14 l145 -6 100 -61 c55 -34 120 -71 145 -84 77 -39 130 -80 156 -122
14 -22 48 -99 75 -171 28 -72 59 -148 70 -169 11 -21 77 -99 147 -174 209
-225 240 -263 256 -311 31 -91 16 -213 -35 -284 -12 -17 -20 -31 -18 -33 2 -1
19 -8 37 -16 42 -16 82 -83 82 -136 0 -41 -141 -481 -166 -522 -23 -35 -74
-62 -118 -62 -22 0 -87 15 -145 34 -118 38 -383 107 -506 131 -153 30 -180 35
-265 49 -523 89 -1178 85 -1695 -10 -44 -8 -96 -17 -115 -20 -138 -22 -460
-104 -628 -160 -116 -39 -186 -29 -230 33 -26 38 -172 490 -172 533 0 56 53
122 114 143 4 1 -3 25 -17 52 -69 132 -54 269 40 370 250 267 326 352 339 377
9 17 37 88 64 158 27 70 56 142 64 159 35 67 92 107 399 279 35 19 55 22 151
23 61 0 129 4 151 9 68 14 89 9 95 -25z m1130 -60 c40 -41 61 -68 54 -73 -6
-4 -15 -15 -21 -25 -9 -17 -11 -16 -37 10 -15 15 -23 29 -17 31 6 2 9 8 5 13
-3 5 0 9 6 9 7 0 9 -7 6 -16 -4 -9 -1 -23 5 -30 13 -15 33 -19 25 -5 -4 5 0
11 6 14 20 7 -51 77 -71 70 -12 -3 -13 -2 -3 4 10 7 8 14 -8 28 -17 16 -25 17
-57 7 -20 -6 -39 -9 -42 -7 -4 5 57 34 74 35 6 0 40 -29 75 -65z m-60 19 c0
-2 -9 -4 -21 -4 -11 0 -18 4 -14 10 5 8 35 3 35 -6z m-50 -3 c0 -5 -9 -11 -21
-14 -16 -4 -18 -3 -8 9 13 16 29 19 29 5z m57 -33 c13 -12 23 -26 23 -32 0 -5
-14 3 -32 20 -29 26 -28 25 5 -14 40 -46 43 -52 25 -70 -9 -9 -4 -18 19 -41
17 -16 34 -26 38 -23 4 4 4 -4 1 -18 -4 -14 -4 -20 1 -14 4 7 19 14 32 15 14
2 26 10 27 17 1 7 0 8 -3 2 -9 -19 -33 -10 -33 13 0 17 -2 19 -10 7 -8 -13
-11 -13 -22 -1 -11 12 -10 13 2 6 8 -5 12 -5 8 -1 -3 4 -10 8 -15 8 -21 0 -45
20 -35 30 6 6 25 1 56 -15 40 -21 51 -23 76 -14 24 9 38 6 97 -21 38 -18 75
-32 82 -32 8 0 11 -8 9 -17 -3 -10 -18 -69 -33 -130 -21 -83 -33 -113 -45
-113 -8 0 -52 10 -98 22 -72 19 -85 25 -99 52 -29 55 -33 86 -18 117 22 42 17
49 -6 9 -17 -30 -19 -31 -15 -9 4 17 1 26 -8 26 -8 0 -12 -8 -9 -21 3 -16 0
-15 -12 7 -18 30 -31 38 -15 8 14 -27 14 -27 -25 -27 -41 0 -39 -2 -20 36 9
17 13 30 11 30 -3 0 -12 -13 -21 -30 -18 -35 -23 -35 -93 -15 -46 14 -51 18
-50 45 1 25 3 28 20 19 26 -14 38 -3 37 34 -1 31 -2 31 -8 5 -5 -24 -8 -25
-24 -13 -13 9 -17 20 -12 34 9 30 54 81 71 81 9 0 12 5 9 10 -6 10 47 39 74
40 8 0 25 -10 38 -22z m-337 -53 c-7 -8 -17 -15 -22 -15 -6 0 -5 7 2 15 7 8
17 15 22 15 6 0 5 -7 -2 -15z m490 -26 c0 -11 5 -17 10 -14 6 3 10 2 10 -3 0
-8 -22 -22 -36 -22 -2 0 -4 14 -4 30 0 17 5 30 10 30 6 0 10 -9 10 -21z m-400
-153 c0 -6 -9 0 -20 14 -26 33 -25 52 0 21 11 -13 20 -28 20 -35z m-374 -337
c51 -27 96 -54 99 -59 3 -5 -30 -27 -73 -49 l-79 -39 -123 64 c-67 35 -125 65
-127 68 -5 5 172 64 196 65 7 1 56 -22 107 -50z m541 -1 l82 -23 -232 -120
c-306 -158 -372 -188 -419 -188 -66 0 -103 58 -60 95 9 9 85 52 167 96 83 44
186 101 230 127 90 52 91 52 232 13z m-119 -238 c26 -25 27 -38 6 -68 -19 -28
-78 -30 -147 -5 l-47 17 67 37 c81 43 92 45 121 19z m-1098 -1121 c0 -5 -8 -9
-17 -8 -11 0 -13 3 -5 6 6 2 9 10 6 15 -4 7 -2 8 4 4 7 -4 12 -11 12 -17z
m1758 -1 c-26 -20 -38 -23 -38 -8 0 6 7 10 16 10 8 0 13 4 10 8 -2 4 4 8 15 8
19 0 18 -1 -3 -18z m-1723 -16 c-3 -3 -11 0 -18 7 -9 10 -8 11 6 5 10 -3 15
-9 12 -12z m109 -51 c20 -15 191 -79 268 -100 371 -101 740 -72 1093 87 72 32
114 45 152 46 63 2 57 -3 -84 -73 -382 -190 -835 -220 -1257 -85 -79 25 -273
113 -311 141 -20 15 -20 15 2 8 13 -3 30 -2 40 4 17 9 68 -5 97 -28z"/>
<path d="M1620 4033 c0 -54 -3 -108 -6 -120 -6 -22 -5 -22 25 -12 34 12 40 24
16 33 -22 8 -18 21 12 35 30 14 47 0 37 -32 -5 -16 -2 -18 18 -12 37 12 44 24
23 39 -11 8 -38 48 -60 90 -22 42 -46 76 -52 76 -10 0 -13 -26 -13 -97z m45 7
c17 -32 13 -50 -11 -50 -10 0 -14 12 -14 40 0 22 2 40 5 40 2 0 12 -14 20 -30z"/>
<path d="M1674 3815 c-20 -43 -23 -58 -14 -75 12 -22 40 -26 58 -8 9 9 12 7
12 -10 0 -12 4 -22 9 -22 15 0 23 18 11 25 -17 10 -11 23 8 18 24 -6 46 21 38
49 -3 13 -25 35 -51 51 l-46 27 -25 -55z"/>
<path d="M3070 4344 c0 -8 4 -14 9 -14 6 0 6 -13 1 -32 -5 -18 -14 -52 -20
-75 -9 -36 -15 -43 -35 -43 -14 0 -26 6 -26 13 -1 6 -2 18 -3 24 -2 22 -21 14
-24 -10 -3 -25 10 -41 44 -51 33 -10 54 15 74 88 11 38 27 74 36 80 14 10 11
14 -20 23 -30 9 -36 9 -36 -3z"/>
<path d="M2977 4103 c-4 -3 -7 -15 -7 -25 0 -12 -7 -18 -24 -18 -26 0 -39 -21
-29 -46 4 -11 15 -15 34 -12 29 4 39 -5 19 -17 -15 -9 -12 -25 5 -25 9 0 15 9
15 21 0 19 1 19 16 5 19 -19 26 -20 42 -4 19 19 14 49 -8 55 -16 4 -18 9 -9
19 17 20 1 54 -25 54 -12 0 -26 -3 -29 -7z"/>
<path d="M3682 2931 c2 -7 7 -12 11 -12 12 1 9 15 -3 20 -7 2 -11 -2 -8 -8z"/>
<path d="M3634 2905 c-4 -9 -2 -21 5 -28 6 -6 11 -21 11 -34 0 -13 7 -26 15
-29 18 -7 47 14 39 27 -3 5 4 9 14 9 23 0 37 29 22 44 -6 6 -21 12 -33 13 -12
0 -32 4 -44 8 -17 5 -25 3 -29 -10z"/>
<path d="M3633 2768 c-6 -7 -16 -37 -24 -65 -7 -29 -16 -53 -21 -53 -4 0 -8
-4 -8 -10 0 -5 10 -10 23 -10 19 0 22 6 23 43 1 50 18 87 39 87 8 0 15 -9 15
-20 0 -11 5 -20 10 -20 14 0 13 33 -2 48 -16 16 -43 15 -55 0z"/>
<path d="M3220 4065 c-7 -8 -10 -24 -7 -34 4 -17 1 -19 -22 -15 -39 8 -69 -26
-52 -62 10 -22 17 -26 46 -22 40 5 42 2 18 -24 -18 -20 -17 -23 14 -32 21 -7
22 -5 17 23 -7 32 9 44 20 16 9 -25 65 -19 75 7 12 33 2 57 -26 64 -17 5 -21
10 -14 17 15 15 14 50 -1 65 -17 17 -53 15 -68 -3z"/>
<path d="M3482 3896 l-12 -31 19 24 c15 20 24 23 51 17 44 -8 32 3 -13 13 -31
8 -34 6 -45 -23z"/>
<path d="M3504 3889 c-7 -12 12 -29 33 -29 17 0 25 17 12 26 -8 4 -9 3 -5 -4
4 -7 1 -12 -9 -12 -11 0 -15 5 -11 15 6 17 -9 20 -20 4z"/>
<path d="M3410 3885 c0 -5 5 -17 10 -25 5 -8 10 -10 10 -5 0 6 -5 17 -10 25
-5 8 -10 11 -10 5z"/>
<path d="M3530 3816 c0 -2 7 -7 16 -10 8 -3 12 -2 9 4 -6 10 -25 14 -25 6z"/>
<path d="M3260 3781 c0 -5 9 -7 20 -4 11 3 20 7 20 9 0 2 -9 4 -20 4 -11 0
-20 -4 -20 -9z"/>
<path d="M3548 3777 c7 -8 9 -17 5 -20 -3 -4 -1 -7 5 -7 18 0 14 27 -4 34 -13
5 -14 4 -6 -7z"/>
<path d="M3251 3738 c0 -12 3 -17 6 -10 2 6 9 9 15 6 6 -4 9 -1 6 6 -8 24 -28
23 -27 -2z"/>
<path d="M3265 3710 c-3 -5 -1 -10 4 -10 6 0 11 5 11 10 0 6 -2 10 -4 10 -3 0
-8 -4 -11 -10z"/>
<path d="M3106 3664 c-8 -20 0 -32 14 -18 5 5 5 15 1 22 -6 11 -10 10 -15 -4z"/>
<path d="M3115 3620 c-3 -5 1 -10 10 -10 9 0 13 5 10 10 -3 6 -8 10 -10 10 -2
0 -7 -4 -10 -10z"/>
<path d="M3120 3589 c0 -5 5 -7 10 -4 6 3 10 8 10 11 0 2 -4 4 -10 4 -5 0 -10
-5 -10 -11z"/>
<path d="M3131 3571 c-9 -6 -7 -10 8 -14 12 -3 21 -1 21 3 0 14 -15 19 -29 11z"/>
<path d="M3155 3510 c3 -5 1 -10 -4 -10 -6 0 -11 -5 -11 -11 0 -8 5 -8 15 1
17 14 20 30 4 30 -5 0 -7 -4 -4 -10z"/>
<path d="M3393 3490 c5 -31 14 -33 19 -5 4 17 1 25 -8 25 -8 0 -13 -8 -11 -20z"/>
<path d="M3140 3460 c0 -5 7 -10 15 -10 8 0 15 5 15 10 0 6 -7 10 -15 10 -8 0
-15 -4 -15 -10z"/>
<path d="M3381 3455 c1 -22 16 -48 22 -38 3 5 0 19 -8 29 -8 10 -14 15 -14 9z"/>
<path d="M3140 3407 c0 -22 6 -37 15 -41 8 -3 15 -1 15 3 0 5 -6 12 -12 14
-10 4 -10 6 0 6 6 1 12 6 12 12 0 5 -5 7 -12 3 -8 -5 -9 -2 -5 9 3 9 2 19 -3
22 -6 4 -10 -9 -10 -28z"/>
<path d="M3132 3346 c1 -10 8 -17 13 -17 15 1 12 24 -3 29 -9 3 -13 -2 -10
-12z"/>
<path d="M2991 3304 c0 -11 3 -14 6 -6 3 7 2 16 -1 19 -3 4 -6 -2 -5 -13z"/>
<path d="M3122 3296 c1 -10 8 -17 13 -17 15 1 12 24 -3 29 -9 3 -13 -2 -10
-12z"/>
<path d="M3091 3283 c-1 -6 -4 -20 -7 -30 -5 -17 -5 -17 6 0 6 10 9 23 6 30
-3 9 -5 9 -5 0z"/>
<path d="M2945 3270 c-3 -5 1 -10 9 -10 9 0 16 5 16 10 0 6 -4 10 -9 10 -6 0
-13 -4 -16 -10z"/>
<path d="M2981 3264 c0 -11 3 -14 6 -6 3 7 2 16 -1 19 -3 4 -6 -2 -5 -13z"/>
<path d="M3110 3260 c0 -6 7 -10 15 -10 8 0 15 2 15 4 0 2 -7 6 -15 10 -8 3
-15 1 -15 -4z"/>
<path d="M2970 3229 c0 -5 5 -7 10 -4 6 3 10 8 10 11 0 2 -4 4 -10 4 -5 0 -10
-5 -10 -11z"/>
<path d="M3095 3231 c-3 -5 -1 -12 5 -16 12 -7 30 2 30 16 0 12 -27 12 -35 0z"/>
<path d="M2961 3194 c0 -11 3 -14 6 -6 3 7 2 16 -1 19 -3 4 -6 -2 -5 -13z"/>
<path d="M3035 3170 c-10 -16 7 -31 23 -21 10 6 10 10 -2 20 -10 9 -16 9 -21
1z"/>
<path d="M2931 3074 c0 -11 3 -14 6 -6 3 7 2 16 -1 19 -3 4 -6 -2 -5 -13z"/>
<path d="M3711 3924 c0 -11 3 -14 6 -6 3 7 2 16 -1 19 -3 4 -6 -2 -5 -13z"/>
<path d="M3751 3784 c0 -11 3 -14 6 -6 3 7 2 16 -1 19 -3 4 -6 -2 -5 -13z"/>
<path d="M3732 3710 c0 -14 2 -19 5 -12 2 6 2 18 0 25 -3 6 -5 1 -5 -13z"/>
<path d="M3701 3594 c0 -11 3 -14 6 -6 3 7 2 16 -1 19 -3 4 -6 -2 -5 -13z"/>
<path d="M3450 3706 c0 -2 8 -10 18 -17 15 -13 16 -12 3 4 -13 16 -21 21 -21
13z"/>
<path d="M3566 3664 c-9 -22 -8 -24 10 -24 10 0 14 6 11 14 -3 8 -1 17 6 20 7
2 5 5 -4 5 -9 1 -20 -6 -23 -15z"/>
<path d="M3555 3607 c-10 -8 -15 -19 -11 -25 12 -19 23 -14 28 13 6 29 7 29
-17 12z"/>
<path d="M3536 3553 c-11 -11 -6 -23 9 -23 8 0 15 4 15 9 0 13 -16 22 -24 14z"/>
<path d="M3525 3509 c-4 -6 -4 -13 -1 -16 3 -4 6 -1 6 6 0 8 7 11 15 7 8 -3
15 -1 15 4 0 13 -27 13 -35 -1z"/>
<path d="M3525 3470 c-8 -13 3 -30 18 -29 9 0 9 2 0 6 -7 2 -13 9 -13 14 0 6
5 7 10 4 6 -3 10 -1 10 4 0 14 -17 14 -25 1z"/>
<path d="M3535 3400 c-8 -13 4 -32 16 -25 12 8 12 35 0 35 -6 0 -13 -4 -16
-10z"/>
<path d="M3320 3373 c0 -13 5 -23 10 -23 13 0 13 11 0 30 -8 12 -10 11 -10 -7z"/>
<path d="M2440 2114 c-239 -20 -318 -28 -470 -50 -96 -14 -270 -45 -386 -69
-213 -45 -638 -161 -692 -189 -36 -19 -62 -57 -62 -92 0 -41 150 -486 172
-510 33 -37 64 -35 213 12 523 166 1030 244 1590 244 554 0 1076 -81 1583
-245 150 -48 169 -49 209 -12 26 23 173 463 173 517 0 54 -41 83 -171 123
-404 124 -759 199 -1164 247 -149 18 -247 22 -565 25 -212 1 -405 1 -430 -1z
m298 -160 c18 -20 22 -36 20 -68 -3 -36 -6 -41 -30 -44 -25 -3 -28 0 -28 27 0
19 -7 34 -18 40 -36 19 -43 0 -40 -120 l3 -114 25 0 c21 0 26 6 30 35 4 29 10
36 33 38 33 4 42 -14 33 -63 -11 -57 -44 -88 -96 -87 -59 1 -79 23 -90 103
-14 92 -12 210 4 238 31 56 111 64 154 15z m123 26 c5 0 9 -30 9 -67 l0 -68
37 68 c34 62 40 67 70 67 18 0 33 -3 33 -7 0 -5 -18 -41 -39 -81 l-39 -73 39
-100 c21 -55 39 -105 39 -110 0 -6 -15 -9 -32 -7 -30 3 -35 8 -58 70 -15 37
-29 70 -32 74 -7 7 -16 -39 -20 -101 -3 -35 -6 -40 -30 -43 -20 -2 -28 2 -33
19 -8 24 3 348 12 362 3 5 12 6 20 3 8 -3 19 -6 24 -6z m-385 -37 c3 -16 8
-34 10 -41 12 -39 64 -276 64 -293 0 -14 -7 -19 -25 -19 -26 0 -45 25 -45 60
0 18 -5 21 -32 18 -29 -3 -34 -7 -38 -37 -4 -27 -11 -36 -32 -42 -28 -7 -28
-7 -28 42 0 50 27 303 35 327 3 7 21 12 44 12 36 0 41 -3 47 -27z m817 20 c35
-5 38 -8 35 -37 -3 -31 -3 -31 -55 -28 l-53 3 0 -46 c0 -45 0 -45 34 -45 41 0
50 -10 41 -48 -5 -25 -9 -27 -44 -24 l-38 4 -8 -76 -7 -76 -30 0 -31 0 7 113
c4 61 9 147 13 190 l6 77 46 0 c25 0 63 -3 84 -7z m-1009 -30 c2 -16 10 -87
17 -159 14 -156 7 -181 -55 -202 -45 -14 -56 -8 -59 33 -2 23 3 30 23 35 33 8
36 40 20 187 -7 61 -9 116 -6 122 4 6 18 11 31 11 18 0 25 -7 29 -27z m1232
-8 c42 -27 43 -128 2 -180 -19 -24 -19 -31 -9 -82 6 -31 11 -68 11 -83 0 -24
-3 -26 -30 -22 -33 5 -35 10 -48 101 -10 75 -29 77 -37 4 -10 -91 -13 -96 -43
-88 -15 4 -28 8 -29 9 -3 3 28 337 33 355 6 18 117 8 150 -14z m-1406 0 c0 -9
-11 -43 -25 -77 -14 -34 -25 -66 -25 -71 0 -5 23 -49 50 -98 59 -104 61 -119
20 -119 -25 0 -33 8 -66 66 -43 76 -54 71 -46 -22 l5 -64 -30 0 -30 0 -22 138
c-11 75 -22 160 -24 187 -2 47 -1 50 25 53 28 3 27 5 44 -93 l7 -39 29 77 c28
72 32 77 59 77 19 0 29 -5 29 -15z m1555 -14 c3 -6 1 -40 -5 -78 -5 -37 -17
-115 -25 -172 -9 -58 -18 -108 -21 -113 -9 -14 -44 -9 -51 8 -5 15 2 80 28
264 6 41 13 81 15 88 4 14 50 16 59 3z m188 -26 c30 -5 37 -10 37 -28 0 -41
-12 -48 -64 -38 -50 9 -49 10 -60 -41 -5 -24 -3 -28 21 -34 49 -10 53 -13 53
-36 0 -39 -12 -48 -52 -39 l-37 9 -6 -40 c-8 -46 -2 -53 57 -62 36 -6 38 -8
32 -34 -4 -15 -9 -30 -13 -34 -8 -9 -143 20 -151 32 -6 9 42 326 54 355 3 10
16 11 48 5 24 -5 60 -11 81 -15z m-2004 -14 c21 -21 37 -83 26 -100 -3 -6 -17
-11 -30 -11 -19 0 -26 7 -31 28 -9 34 -23 43 -46 31 -20 -11 -19 -27 8 -158
14 -71 23 -85 50 -79 15 3 19 12 19 43 0 38 2 40 30 40 30 0 30 0 30 -59 -1
-71 -23 -96 -89 -96 -67 0 -82 24 -111 173 -27 136 -25 162 17 191 32 23 103
21 127 -3z m2146 -22 c4 -5 12 -57 19 -115 l11 -105 19 88 c24 113 29 122 61
116 14 -3 25 -11 25 -17 0 -14 -56 -271 -71 -328 -9 -35 -11 -36 -38 -27 -32
11 -35 22 -47 159 -8 83 -11 80 -39 -52 -15 -71 -19 -78 -40 -78 -13 0 -26 4
-30 9 -3 5 8 78 25 163 42 215 36 198 70 198 16 0 32 -5 35 -11z m-2396 -71
c15 -35 48 -112 72 -171 37 -91 41 -110 29 -117 -29 -19 -48 -10 -64 29 -14
36 -17 39 -43 32 -22 -6 -27 -13 -25 -30 2 -13 1 -34 -3 -48 -4 -19 -11 -24
-33 -21 l-27 3 -8 184 c-9 200 -9 201 46 201 25 0 31 -7 56 -62z m2655 17 c66
-20 96 -49 96 -93 0 -49 -47 -222 -69 -252 -13 -18 -29 -26 -57 -28 -43 -4
-124 16 -124 30 0 14 81 341 86 350 7 11 11 10 68 -7z m-2925 -142 c18 -71 35
-136 38 -147 4 -14 12 -17 37 -13 17 3 39 8 48 12 21 9 40 -31 27 -56 -8 -15
-137 -54 -147 -44 -3 3 -26 83 -52 177 -43 155 -46 174 -32 186 38 30 48 17
81 -115z m-152 62 c27 -19 47 -78 39 -115 -3 -19 0 -33 11 -42 40 -33 56 -126
28 -165 -16 -23 -135 -68 -146 -56 -8 11 -112 353 -108 357 2 2 24 10 49 19
58 20 100 21 127 2z m3359 0 c53 -36 52 -128 0 -118 -21 4 -26 11 -26 33 0 34
-27 47 -49 25 -14 -14 -12 -23 22 -90 40 -81 46 -128 22 -174 -43 -84 -175
-38 -175 60 0 44 5 49 42 42 21 -4 26 -10 25 -30 -3 -36 27 -53 50 -30 17 17
16 21 -21 91 -34 63 -38 79 -34 120 7 62 30 86 82 86 23 0 51 -7 62 -15z"/>
<path d="M2431 1834 c-1 -17 -4 -46 -7 -63 -6 -27 -4 -31 15 -31 20 0 21 4 15
38 -4 20 -11 48 -15 62 -7 24 -7 24 -8 -6z"/>
<path d="M3426 1864 c-3 -9 -6 -29 -6 -45 0 -27 3 -30 28 -27 23 3 28 8 30 37
3 33 -9 51 -34 51 -7 0 -15 -7 -18 -16z"/>
<path d="M1553 1695 c4 -22 7 -48 7 -57 0 -11 8 -18 19 -18 19 0 19 1 -1 53
-25 66 -33 73 -25 22z"/>
<path d="M4207 1618 c-15 -62 -27 -116 -27 -120 0 -10 47 -10 53 0 3 4 17 51
31 106 28 102 25 126 -13 126 -13 0 -23 -25 -44 -112z"/>
<path d="M1093 1654 c-8 -4 -9 -14 -3 -34 13 -46 19 -51 41 -39 28 14 23 73
-6 76 -11 1 -25 0 -32 -3z"/>
<path d="M1141 1511 c-12 -8 -13 -16 -2 -50 12 -42 17 -46 45 -35 16 6 21 48
10 78 -7 18 -31 21 -53 7z"/>
<path d="M3160 3171 c0 -5 9 -12 19 -16 11 -3 33 -21 49 -39 29 -33 29 -33 42
-12 11 18 11 19 -1 9 -12 -10 -22 -5 -54 27 -40 39 -55 48 -55 31z"/>
<path d="M3134 3005 c-13 -26 -9 -35 15 -34 12 0 11 3 -4 9 -17 7 -15 9 11 9
42 1 49 11 18 28 -15 7 -27 13 -28 13 0 0 -6 -11 -12 -25z"/>
<path d="M3275 3009 c-7 -20 -7 -20 -22 -2 -14 17 -14 17 -5 -1 14 -28 37 -28
38 0 2 30 -3 31 -11 3z"/>
<path d="M3457 2975 c6 -37 -11 -50 -20 -15 -4 15 -14 20 -36 20 -55 0 -64
-68 -11 -85 16 -5 17 -10 9 -29 -16 -34 4 -66 40 -66 30 0 41 15 41 52 0 14 5
18 16 14 27 -10 54 12 54 45 0 34 -32 53 -62 37 -22 -11 -23 0 -3 26 12 16 12
22 2 28 -26 17 -36 9 -30 -27z"/>
<path d="M3078 2993 c7 -3 16 -2 19 1 4 3 -2 6 -13 5 -11 0 -14 -3 -6 -6z"/>
</g>
</svg>
